<?xml version="1.0" encoding="UTF-8" standalone="no"?><!DOCTYPE svg PUBLIC "-//W3C//DTD SVG 1.1//EN" "http://www.w3.org/Graphics/SVG/1.1/DTD/svg11.dtd"><svg width="100%" height="100%" viewBox="0 0 1736 506" version="1.1" xmlns="http://www.w3.org/2000/svg" xmlns:xlink="http://www.w3.org/1999/xlink" xml:space="preserve" xmlns:serif="http://www.serif.com/" style="fill-rule:evenodd;clip-rule:evenodd;stroke-linejoin:round;stroke-miterlimit:1.41421;"><rect id="MRG_Logo_RGB" x="0" y="0" width="1735.54" height="505.386" style="fill:none;"/><clipPath id="_clip1"><rect x="0" y="0" width="1735.54" height="505.386"/></clipPath><g clip-path="url(#_clip1)"><path d="M1685.27,369.687c10.985,0.026 21.998,3.796 30.727,10.678c8.043,6.342 14.089,15.11 17.03,25.21c2.512,8.63 2.622,17.926 0.348,26.591c-3.033,11.563 -10.383,21.884 -20.278,28.592c-8.198,5.559 -18.038,8.57 -27.975,8.556c-9.117,-0.013 -18.228,-2.582 -25.989,-7.36c-0.197,-0.121 -0.393,-0.244 -0.588,-0.368l-0.043,-0.027l0,32.953c-0.016,3.005 -1.301,5.934 -3.486,7.97c-3.123,2.91 -8.003,3.78 -12.011,1.936c-2.642,-1.215 -4.764,-3.526 -5.743,-6.274c-0.414,-1.162 -0.625,-2.391 -0.631,-3.632l0,-112.097c0.018,-3.442 1.744,-6.834 4.578,-8.863c3.223,-2.307 7.745,-2.683 11.339,-0.839c2.21,1.134 4.013,3.049 5.022,5.316l0.007,0.016c0.057,-0.038 0.113,-0.076 0.17,-0.113c7.507,-4.964 16.474,-7.87 25.556,-8.209c0.656,-0.025 1.309,-0.036 1.967,-0.036Zm-362.245,86.97c-0.351,9.244 -3.464,18.375 -8.842,25.912c-6.946,9.734 -17.526,16.726 -29.245,19.291c-3.889,0.851 -7.86,1.221 -11.874,1.116c0,0 0.018,-0.001 0.018,-0.001c-1.153,0.041 -2.306,0.018 -3.457,-0.016c-7.83,-0.235 -15.666,-1.371 -23.111,-3.845c-2.685,-0.892 -5.329,-1.932 -7.777,-3.335c-0.455,-0.24 -0.895,-0.515 -1.311,-0.819l0.064,0.043l-0.117,-0.092l0.008,0.015c-2.391,-1.765 -3.99,-4.485 -4.367,-7.395c-0.474,-3.666 1.044,-7.516 3.914,-9.871c3.028,-2.485 7.403,-3.195 11.14,-1.638c0,0 0.18,0.076 0.305,0.129c4.297,1.804 8.688,3.35 13.293,4.155c4.196,0.733 8.502,0.901 12.764,1.012c1.035,0.026 2.061,-0.06 3.084,-0.178c6.041,-0.692 11.815,-3.496 16.095,-7.848c2.789,-2.835 4.93,-6.263 6.216,-10.084c0.057,-0.171 0.112,-0.341 0.166,-0.512l0.004,-0.013c-9.419,5.426 -20.472,7.592 -31.172,6.23c-9.339,-1.188 -18.311,-5.125 -25.514,-11.124c-7.693,-6.406 -13.401,-15.157 -16.112,-24.806c-2.915,-10.379 -2.349,-21.71 1.609,-31.741c3.628,-9.192 10.052,-17.233 18.2,-22.83c5.791,-3.978 12.437,-6.711 19.344,-7.946c11.655,-2.085 23.96,0.07 34.275,6.222c0.545,0.325 1.084,0.661 1.617,1.007l0.024,0.015c0.014,-0.03 0.028,-0.059 0.043,-0.089c1.558,-3.148 4.712,-5.496 8.272,-5.999c3.397,-0.481 6.999,0.738 9.41,3.235c1.936,2.005 3.056,4.772 3.067,7.558c0.032,24.446 0,48.892 0,73.337c-0.001,0.27 -0.011,0.54 -0.03,0.81c0,0 -0.002,0.058 -0.003,0.095Zm132.573,-86.97c6.927,0.017 13.832,1.475 20.137,4.281c10.181,4.531 18.727,12.561 23.898,22.392c4.788,9.105 6.636,19.717 5.235,29.945c-1.096,8.006 -4.203,15.756 -8.952,22.33c-6.322,8.751 -15.534,15.392 -25.959,18.55c-12.106,3.667 -25.627,2.517 -36.977,-3.257c-11.043,-5.617 -19.883,-15.495 -24.198,-27.164c-3.926,-10.617 -4.091,-22.621 -0.409,-33.378c3.472,-10.144 10.33,-19.085 19.175,-25.101c7.268,-4.944 15.86,-7.903 24.616,-8.486c1.143,-0.076 2.293,-0.112 3.434,-0.112Zm152.887,1.827c3.322,0.016 6.571,1.599 8.626,4.261c1.459,1.889 2.262,4.273 2.275,6.64l0,38.486c0.084,6.673 -1.244,13.486 -3.954,19.702c-3.761,8.629 -10.116,16.079 -18.067,21.18c-11.358,7.288 -25.882,9.453 -39.01,5.659c-9.572,-2.766 -18.212,-8.636 -24.355,-16.48c-6.029,-7.699 -9.597,-17.233 -10.08,-27.033c-0.008,-0.175 -0.016,-0.349 -0.023,-0.523c0,0 0.002,0.016 0.002,0.016c-0.022,-0.274 -0.034,-0.548 -0.037,-0.823l0,-0.029c-0.062,-13.385 -0.017,-26.77 0,-40.155c0.013,-3.231 1.523,-6.399 4.03,-8.444c3.118,-2.542 7.677,-3.177 11.407,-1.489c3.622,1.639 6.225,5.327 6.422,9.44c0.008,0.175 0.012,0.349 0.013,0.524l0,34.003l0.008,0.11l0,4.518c-0.079,4.72 1.139,9.4 3.466,13.421c3.681,6.361 10.154,11.028 17.399,12.453c7.089,1.394 14.728,-0.299 20.587,-4.721c3.632,-2.742 6.525,-6.442 8.293,-10.628c1.325,-3.135 2.011,-6.526 2.027,-9.941c0,0 0,-0.283 0,-0.314c-0.027,-12.977 0,-25.954 0,-38.932c0.019,-3.633 1.924,-7.112 4.903,-9.086c1.749,-1.159 3.848,-1.792 5.927,-1.815c0.047,0 0.094,-0.001 0.141,0Zm-217.258,-1.827c3.66,0.018 7.261,1.99 9.238,5.111c2.184,3.45 2.257,8.134 0.013,11.696c-1.944,3.085 -5.496,5.09 -9.181,5.131c-3.182,0.025 -6.348,0.562 -9.32,1.708c-6.952,2.682 -12.614,8.551 -14.928,15.682c-0.775,2.388 -1.178,4.895 -1.202,7.408l-0.001,0.013c0,13.468 0.017,26.936 0,40.404c-0.019,3.519 -1.817,6.964 -4.742,8.978c-2.389,1.645 -5.451,2.279 -8.299,1.724c-3.413,-0.665 -6.443,-3.057 -7.884,-6.265c-0.624,-1.388 -0.947,-2.899 -0.955,-4.437c-0.018,-13.871 -0.018,-27.741 0,-41.611c0.001,-0.357 0.02,-0.714 0.055,-1.07l-0.004,0.037c0.395,-8.447 3.164,-16.722 7.883,-23.707c5.515,-8.163 13.696,-14.547 22.962,-17.929c5.148,-1.879 10.576,-2.843 16.107,-2.872c0.086,0 0.172,-0.001 0.258,-0.001Zm293.918,21.925c-6.716,0.017 -13.447,2.555 -18.515,7.08c-5.833,5.207 -9.341,12.822 -9.329,20.854c0.009,6.338 2.226,12.636 6.318,17.624c4.062,4.953 9.868,8.467 16.207,9.704c5.334,1.041 10.962,0.499 16.018,-1.594c6.993,-2.896 12.709,-8.75 15.424,-15.877c2.399,-6.301 2.441,-13.395 0,-19.805c-3.004,-7.885 -9.678,-14.207 -17.789,-16.732c-2.632,-0.82 -5.401,-1.238 -8.154,-1.254c-0.06,0 -0.12,-0.001 -0.18,0Zm-410.029,0c-5.511,0.014 -11.019,1.697 -15.576,4.787c-6.77,4.592 -11.371,12.195 -12.145,20.469c-0.616,6.579 1.177,13.365 5.024,18.77c4.085,5.741 10.373,9.869 17.378,11.236c5.36,1.046 11.027,0.482 16.057,-1.611c6.263,-2.604 11.501,-7.569 14.446,-13.678c3.131,-6.496 3.606,-14.24 1.257,-21.106c-2.475,-7.234 -8.054,-13.333 -15.041,-16.456c-3.528,-1.577 -7.395,-2.397 -11.264,-2.411c-0.046,0 -0.091,-0.001 -0.136,0Zm180.356,0c-5.348,0.013 -10.687,1.594 -15.156,4.508c-6.259,4.082 -10.775,10.726 -12.188,18.102c-1.106,5.767 -0.347,11.892 2.178,17.21c3.718,7.832 11.211,13.756 19.848,15.442c6.672,1.302 13.813,0.078 19.674,-3.436c7.359,-4.413 12.497,-12.291 13.421,-20.954c0.866,-8.127 -1.994,-16.574 -7.838,-22.521c-5.002,-5.09 -11.938,-8.158 -19.173,-8.342c-0.256,-0.007 -0.511,-0.01 -0.766,-0.009Zm-1178.77,-41.54l0.086,0.147c-27.191,15.819 -58.787,24.881 -92.483,24.881c-101.721,0 -184.305,-82.584 -184.305,-184.305c0,-101.72 82.584,-184.304 184.305,-184.304c101.72,0 184.305,82.584 184.305,184.304c0,17.157 -2.35,33.769 -6.744,49.532c-1.952,6.892 -12.081,34.155 -32.099,45.263l0,0c-9.229,6.174 -20.322,9.775 -32.249,9.775c-19.447,0 -36.676,-9.573 -47.226,-24.261c-18.104,14.863 -41.311,23.797 -66.599,23.797c-57.788,0 -104.704,-46.648 -104.704,-104.106c0,-57.457 46.916,-104.105 104.704,-104.105c23.289,0 44.812,7.576 62.211,20.384c3.798,-5.869 10.402,-9.755 17.907,-9.755c11.765,0 21.316,9.551 21.316,21.316l0,117.326l0.013,0.012c-0.009,0.209 -0.013,0.418 -0.013,0.628c0,8.344 6.774,15.118 15.117,15.118c0.335,0 0.667,-0.011 0.996,-0.033l0.034,0.033c1.638,-0.037 3.219,-0.426 4.733,-1.139c3.353,-1.385 6.1,-3.942 7.73,-7.159c7.641,-11.145 12.28,-32.395 12.212,-56.807l-0.067,-0.248c-2.343,-76.13 -64.883,-137.216 -141.577,-137.216c-78.176,0 -141.645,63.469 -141.645,141.645c0,78.176 63.469,141.646 141.645,141.646c25.855,0 50.101,-6.943 70.974,-19.064l0.092,0.158c2.682,-1.222 5.662,-1.903 8.799,-1.903c11.736,0 21.264,9.528 21.264,21.264c0,7.052 -3.44,13.306 -8.732,17.176Zm1260.51,-154.122c0.285,40.559 33.681,73.397 74.774,73.397c41.094,0 74.491,-32.839 74.774,-73.397l0.002,-100.861c0,-12.595 10.226,-22.821 22.821,-22.821c12.595,0 22.821,10.226 22.821,22.821l0,100.861c0,0.14 -0.001,0.279 -0.004,0.418c-0.51,65.266 -54.27,118.097 -120.414,118.097c-66.155,0 -119.921,-52.848 -120.414,-118.129c-0.002,-0.133 -0.004,-0.267 -0.004,-0.401l0,-100.846c0,-12.595 10.226,-22.821 22.821,-22.821c12.596,0 22.821,10.226 22.821,22.821l0,100.861l0.002,0Zm-604.08,93.861c-21.655,15.477 -49.223,24.654 -76.443,24.654c-66.706,0 -120.862,-55.113 -120.862,-122.997c0,-67.884 54.156,-122.998 120.862,-122.998c27.213,0 54.775,9.173 76.428,24.643c0.999,-11.676 10.804,-20.854 22.737,-20.854c12.595,0 22.821,10.226 22.821,22.821l0,192.595c0,12.595 -10.226,22.821 -22.821,22.821c-11.875,0 -21.644,-9.09 -22.722,-20.685Zm433.829,-98.517l0,96.552c0,12.596 -10.226,22.821 -22.821,22.821c-12.595,0 -22.821,-10.225 -22.821,-22.821l0,-97.249c0,-0.183 0.002,-0.366 0.007,-0.549c0.676,-65.123 54.37,-117.788 120.411,-117.789c12.638,0 22.899,10.261 22.899,22.899c0,12.639 -10.261,22.899 -22.899,22.899c-41.04,0 -74.401,32.752 -74.773,73.237l-0.003,0Zm-273.491,20.749c-0.012,-0.301 -0.018,-0.603 -0.018,-0.907l0,-188.315c0,-12.595 10.226,-22.821 22.821,-22.821c12.595,0 22.821,10.226 22.821,22.821l0,188.315c0,0.12 -0.001,0.24 -0.003,0.359l-0.007,3.479c1.432,27.666 24.689,49.717 53.031,49.718c12.638,0 22.899,10.26 22.899,22.899c0,12.399 -9.876,22.509 -22.184,22.887l0,0.001c-0.861,0.051 -2.592,0.084 -3.535,0.084c-52.897,0 -95.843,-42.453 -95.843,-94.742l0.018,-3.778Zm-33.697,-116.963c0,-12.595 -10.226,-22.821 -22.821,-22.821c-12.596,0 -22.821,10.226 -22.821,22.821l0,192.595c0,12.595 10.225,22.821 22.821,22.821c12.595,0 22.821,-10.226 22.821,-22.821l0,-192.595Zm231.005,183.742c0,-12.595 -10.226,-22.821 -22.821,-22.821c-12.595,0 -22.821,10.226 -22.821,22.821l0,8.853c0,12.595 10.226,22.821 22.821,22.821c12.595,0 22.821,-10.226 22.821,-22.821l0,-8.853Zm-828.18,8.853c0,12.595 -10.225,22.821 -22.821,22.821c-12.595,0 -22.821,-10.226 -22.821,-22.821l0,-192.595c0,-12.595 10.226,-22.821 22.821,-22.821c9.82,0 18.199,6.215 21.415,14.923c12.94,-11.621 30.122,-18.708 48.965,-18.708c22.703,0 42.994,10.287 56.361,26.399c14.323,-16.176 35.362,-26.399 58.796,-26.399c43.116,0 78.12,34.602 78.12,77.222c0,0.465 -0.004,0.929 -0.013,1.392c0.009,0.252 0.013,0.506 0.013,0.761l0,139.826c0,12.595 -10.226,22.821 -22.821,22.821c-12.595,0 -22.821,-10.226 -22.821,-22.821l0,-52.882l0,-87.618l-0.029,0c0.02,-0.446 0.029,-0.894 0.029,-1.344c0,-17.361 -14.259,-31.456 -31.822,-31.456c-1.256,0 -2.495,0.072 -3.713,0.212c-13.346,1.316 -22.439,8.353 -28.484,16.003c-6.966,8.808 -10.756,19.708 -10.757,30.938l0,126.147c0,12.595 -10.226,22.821 -22.821,22.821c-12.595,0 -22.821,-10.226 -22.821,-22.821l0,-80.358l0,-60.142l-0.028,0c0.019,-0.446 0.028,-0.894 0.028,-1.344c0,-17.361 -14.259,-31.456 -31.822,-31.456c-1.256,0 -2.495,0.072 -3.713,0.212c-13.346,1.316 -22.439,8.353 -28.484,16.003c-6.966,8.808 -10.756,19.708 -10.757,30.938l0,126.147Zm-277.198,-160.807c35.476,0 64.278,28.597 64.278,63.819c0,35.223 -28.802,63.82 -64.278,63.82c-35.475,0 -64.277,-28.597 -64.277,-63.82c0,-35.222 28.802,-63.819 64.277,-63.819Zm674,-12.493c49.628,0 77.932,34.544 77.932,77.093c0,42.548 -27.411,77.092 -77.932,77.092c-43.011,0 -77.931,-34.544 -77.931,-77.092c0,-42.549 34.92,-77.093 77.931,-77.093Zm200.373,-91.554c0,-12.595 -10.226,-22.821 -22.821,-22.821c-12.596,0 -22.821,10.226 -22.821,22.821l0,8.853c0,12.595 10.225,22.821 22.821,22.821c12.595,0 22.821,-10.226 22.821,-22.821l0,-8.853Z" style="fill:#75787b;"/></g></svg>